# 3ds Max Wavefront OBJ Exporter v0.97b - (c)2007 guruware
# File Created: 19.10.2015 11:45:37

mtllib sword.mtl

#
# object Plane002
#

v  106.5973 44.0164 139.4846
v  107.6333 22.9086 137.6936
v  141.4760 24.2594 137.6936
v  140.1379 46.2947 139.4846
v  72.9098 42.3233 139.4846
v  73.9458 21.7511 137.6936
v  42.8519 41.1842 139.4846
v  43.8879 21.1015 137.6936
v  13.0773 40.2507 139.4846
v  -15.6919 39.7483 139.4846
v  -14.6559 20.3351 137.6936
v  14.1133 20.4484 137.6936
v  -43.1830 39.7548 139.4846
v  -71.9614 40.0552 139.4846
v  -70.9254 21.1156 137.6936
v  -42.1470 20.4572 137.6936
v  -103.0946 40.6504 139.4846
v  -134.4825 41.8211 139.4846
v  -133.4465 23.5631 137.6936
v  -102.0585 22.0408 137.6936
v  -164.6158 43.0874 139.4846
v  -194.3687 44.6754 139.4846
v  -193.3327 26.9884 137.6936
v  -163.5797 25.0445 137.6936
v  -218.0896 46.1445 139.4846
v  -241.9161 48.1425 139.4846
v  -240.8801 30.9772 137.6936
v  -217.0536 28.7890 137.6936
v  -272.6541 50.7202 139.4846
v  -294.5123 52.8694 139.4846
v  -293.4763 36.5044 137.6936
v  -271.6181 34.1469 137.6936
v  -317.2959 39.6161 137.6936
v  -318.3319 55.2675 139.4846
v  -331.0232 56.7490 139.4846
v  -329.8665 43.3005 137.6936
v  -346.0718 58.5548 137.6936
v  -339.2837 49.7139 137.6936
v  175.7192 26.4451 137.6936
v  174.0756 49.4636 139.4846
v  174.0756 49.4636 137.6936
v  140.1379 46.2947 137.6936
v  106.5973 44.0164 137.6936
v  72.9098 42.3233 137.6936
v  42.8519 41.1842 137.6936
v  13.0773 40.2507 137.6936
v  -15.6919 39.7483 137.6936
v  -43.1830 39.7548 137.6936
v  -71.9614 40.0552 137.6936
v  -103.0946 40.6504 137.6936
v  -134.4825 41.8211 137.6936
v  -164.6158 43.0874 137.6936
v  -194.3687 44.6754 137.6936
v  -218.0896 46.1754 137.6936
v  -241.9161 48.1425 137.6936
v  -272.6541 50.7202 137.6936
v  -294.5123 52.8694 137.6936
v  -318.3319 55.2675 137.6936
v  -331.0232 56.7490 137.6539
v  106.5973 44.0164 135.9025
v  140.1379 46.2947 135.9025
v  72.9098 42.3233 135.9025
v  42.8519 41.1842 135.9025
v  13.0773 40.2507 135.9025
v  -15.6919 39.7483 135.9025
v  -43.1830 39.7548 135.9025
v  -71.9614 40.0552 135.9025
v  -103.0946 40.6504 135.9025
v  -134.4825 41.8211 135.9025
v  -164.6158 43.0874 135.9025
v  -194.3687 44.6754 135.9025
v  -218.0896 46.1445 135.9025
v  -241.9161 48.1425 135.9025
v  -272.6541 50.7202 135.9025
v  -294.5123 52.8694 135.9025
v  -331.0232 56.7490 135.9025
v  -318.3319 55.2675 135.9025
v  174.0756 49.4636 135.9025
v  180.2125 17.6562 155.4762
v  180.9085 9.7006 137.6936
v  178.5299 36.8887 137.6936
v  178.5299 36.8887 162.4276
v  176.1512 64.0769 137.6936
v  176.8472 56.1213 155.4762
v  180.2125 17.6562 119.9109
v  178.5299 36.8887 112.9596
v  176.8472 56.1213 119.9109
v  176.1544 17.3012 155.4762
v  174.4718 36.5337 162.4276
v  174.4718 36.5337 137.6936
v  176.8504 9.3455 137.6936
v  172.7892 55.7662 155.4762
v  172.0931 63.7219 137.6936
v  174.4718 36.5337 112.9596
v  176.1544 17.3012 119.9109
v  172.7892 55.7662 119.9109
v  178.4747 37.5196 125.7884
v  178.0554 42.3125 126.5299
v  244.7821 47.7006 127.6058
v  245.1624 43.3540 126.9333
v  177.6866 46.5273 128.6651
v  244.4477 51.5230 129.5422
v  177.4129 49.6556 131.9365
v  244.1995 54.3601 132.5089
v  177.2673 51.3202 135.9494
v  244.0674 55.8696 136.1482
v  177.2673 51.3202 140.2198
v  244.0674 55.8696 140.0210
v  177.4129 49.6556 144.2327
v  244.1995 54.3601 143.6602
v  177.6866 46.5273 147.5040
v  244.4477 51.5230 146.6270
v  178.0554 42.3125 149.6392
v  244.7821 47.7006 148.5634
v  178.4747 37.5196 150.3808
v  245.1624 43.3540 149.2359
v  178.8940 32.7267 149.6392
v  245.5427 39.0074 148.5634
v  179.2628 28.5119 147.5040
v  245.8771 35.1850 146.6270
v  179.5365 25.3836 144.2327
v  246.1253 32.3480 143.6602
v  179.6821 23.7190 140.2198
v  246.2574 30.8384 140.0210
v  179.6821 23.7190 135.9494
v  246.2574 30.8384 136.1482
v  179.5365 25.3836 131.9365
v  246.1253 32.3480 132.5089
v  179.2628 28.5119 128.6651
v  245.8771 35.1850 129.5422
v  178.8940 32.7267 126.5299
v  245.5427 39.0074 127.6058
v  278.1260 50.6178 127.6058
v  278.5063 46.2712 126.9333
v  277.7916 54.4402 129.5422
v  277.5434 57.2773 132.5089
v  277.4113 58.7868 136.1482
v  277.4113 58.7868 140.0210
v  277.5434 57.2773 143.6602
v  277.7916 54.4402 146.6270
v  278.1260 50.6178 148.5634
v  278.5063 46.2712 149.2359
v  278.8866 41.9246 148.5634
v  279.2210 38.1022 146.6270
v  279.4692 35.2652 143.6602
v  279.6013 33.7556 140.0210
v  279.6013 33.7556 136.1482
v  279.4692 35.2652 132.5089
v  279.2210 38.1022 129.5422
v  278.8866 41.9246 127.6058
v  311.4699 53.5351 127.6058
v  311.8502 49.1884 126.9333
v  311.1355 57.3574 129.5422
v  310.8873 60.1945 132.5089
v  310.7552 61.7040 136.1482
v  310.7552 61.7040 140.0210
v  310.8873 60.1945 143.6602
v  311.1355 57.3574 146.6270
v  311.4699 53.5351 148.5634
v  311.8502 49.1884 149.2359
v  312.2304 44.8418 148.5634
v  312.5648 41.0194 146.6270
v  312.8130 38.1824 143.6602
v  312.9451 36.6728 140.0210
v  312.9451 36.6728 136.1482
v  312.8130 38.1824 132.5089
v  312.5648 41.0194 129.5422
v  312.2304 44.8418 127.6058
v  384.9337 60.4775 126.3732
v  385.3587 55.6196 125.6216
v  384.5599 64.7494 128.5374
v  384.2825 67.9202 131.8531
v  384.1349 69.6073 135.9204
v  384.1349 69.6073 140.2487
v  384.2825 67.9202 144.3160
v  384.5599 64.7494 147.6317
v  384.9337 60.4775 149.7959
v  385.3587 55.6196 150.5475
v  385.7837 50.7617 149.7959
v  386.1574 46.4898 147.6317
v  386.4348 43.3190 144.3160
v  386.5825 41.6319 140.2487
v  386.5825 41.6319 135.9204
v  386.4348 43.3190 131.8531
v  386.1574 46.4897 128.5374
v  385.7837 50.7617 126.3732
# 186 vertices

vn 0.0024 -0.0479 0.9988
vn 0.0021 -0.0485 0.9988
vn 0.0028 -0.0466 0.9989
vn 0.0033 -0.0458 0.9989
vn 0.0017 -0.0496 0.9988
vn 0.0014 -0.0496 0.9988
vn 0.0016 -0.0509 0.9987
vn 0.0014 -0.0506 0.9987
vn 0.0010 -0.0518 0.9987
vn 0.0004 -0.0527 0.9986
vn 0.0002 -0.0524 0.9986
vn 0.0008 -0.0514 0.9987
vn -0.0005 -0.0532 0.9986
vn -0.0010 -0.0542 0.9985
vn -0.0012 -0.0538 0.9985
vn -0.0006 -0.0529 0.9986
vn -0.0018 -0.0552 0.9985
vn -0.0024 -0.0562 0.9984
vn -0.0025 -0.0559 0.9984
vn -0.0019 -0.0548 0.9985
vn -0.0030 -0.0570 0.9984
vn -0.0036 -0.0582 0.9983
vn -0.0038 -0.0578 0.9983
vn -0.0031 -0.0567 0.9984
vn -0.0045 -0.0593 0.9982
vn -0.0055 -0.0602 0.9982
vn -0.0056 -0.0597 0.9982
vn -0.0046 -0.0589 0.9983
vn -0.0059 -0.0622 0.9980
vn -0.0070 -0.0634 0.9980
vn -0.0072 -0.0627 0.9980
vn -0.0060 -0.0616 0.9981
vn -0.0105 -0.0676 0.9977
vn -0.0072 -0.0657 0.9978
vn -0.0499 -0.0774 0.9958
vn -0.0357 -0.0747 0.9966
vn -0.0619 -0.0658 0.9959
vn 0.0000 -0.0000 1.0000
vn 0.0037 -0.0449 0.9990
vn 0.0041 -0.0441 0.9990
vn -0.0804 0.9968 0.0000
vn -0.0930 0.9957 0.0000
vn -0.0440 0.9990 0.0000
vn -0.0590 0.9983 0.0000
vn -0.0346 0.9994 0.0000
vn -0.0086 1.0000 0.0000
vn -0.0244 0.9997 0.0000
vn 0.0148 0.9999 0.0000
vn 0.0053 1.0000 0.0000
vn 0.0396 0.9992 0.0000
vn 0.0282 0.9996 0.0000
vn 0.0576 0.9983 0.0000
vn 0.0476 0.9989 0.0000
vn 0.0829 0.9966 0.0004
vn 0.0733 0.9969 0.0297
vn 0.0733 0.9973 0.0000
vn 0.0829 0.9966 0.0000
vn 0.0990 0.9951 0.0000
vn 0.0907 0.9959 0.0000
vn 0.1175 0.9931 0.0000
vn 0.1081 0.9941 0.0000
vn 0.1191 0.9929 0.0000
vn 0.0024 -0.0479 -0.9988
vn 0.0033 -0.0458 -0.9989
vn 0.0028 -0.0466 -0.9989
vn 0.0021 -0.0485 -0.9988
vn 0.0014 -0.0496 -0.9988
vn 0.0017 -0.0496 -0.9988
vn 0.0014 -0.0506 -0.9987
vn 0.0016 -0.0509 -0.9987
vn 0.0010 -0.0518 -0.9987
vn 0.0008 -0.0514 -0.9987
vn 0.0002 -0.0524 -0.9986
vn 0.0004 -0.0527 -0.9986
vn -0.0005 -0.0532 -0.9986
vn -0.0006 -0.0529 -0.9986
vn -0.0012 -0.0538 -0.9985
vn -0.0010 -0.0542 -0.9985
vn -0.0018 -0.0552 -0.9985
vn -0.0019 -0.0548 -0.9985
vn -0.0025 -0.0559 -0.9984
vn -0.0024 -0.0562 -0.9984
vn -0.0030 -0.0570 -0.9984
vn -0.0031 -0.0567 -0.9984
vn -0.0038 -0.0578 -0.9983
vn -0.0036 -0.0582 -0.9983
vn -0.0045 -0.0593 -0.9982
vn -0.0046 -0.0589 -0.9983
vn -0.0056 -0.0597 -0.9982
vn -0.0055 -0.0602 -0.9982
vn -0.0059 -0.0622 -0.9980
vn -0.0060 -0.0616 -0.9981
vn -0.0072 -0.0627 -0.9980
vn -0.0070 -0.0634 -0.9980
vn -0.0105 -0.0676 -0.9977
vn -0.0228 -0.0778 -0.9967
vn -0.0499 -0.0774 -0.9958
vn -0.0072 -0.0657 -0.9978
vn 0.0000 0.0000 -1.0000
vn -0.0774 -0.0823 -0.9936
vn 0.0037 -0.0449 -0.9990
vn 0.0041 -0.0441 -0.9990
vn 0.0829 0.9966 -0.0004
vn 0.0733 0.9969 -0.0297
vn 0.9962 0.0872 -0.0000
vn 0.9962 0.0872 0.0000
vn -0.9962 -0.0872 0.0000
vn -0.9962 -0.0872 -0.0000
vn 0.0176 -0.2007 0.9795
vn -0.0000 -0.0000 1.0000
vn -0.0176 0.2007 0.9795
vn -0.0685 0.7832 0.6180
vn -0.0872 0.9962 -0.0000
vn -0.0685 0.7832 -0.6180
vn -0.0176 0.2007 -0.9795
vn 0.0000 -0.0000 -1.0000
vn 0.0176 -0.2007 -0.9795
vn 0.0685 -0.7832 -0.6180
vn 0.0872 -0.9962 0.0000
vn 0.0872 -0.9962 -0.0000
vn 0.0685 -0.7832 0.6180
vn 0.0097 0.0009 -1.0000
vn -0.0058 0.1837 -0.9830
vn -0.0109 0.1828 -0.9831
vn 0.0049 0.0004 -1.0000
vn -0.0229 0.3977 -0.9172
vn -0.0287 0.3962 -0.9177
vn -0.0438 0.6731 -0.7383
vn -0.0512 0.6712 -0.7395
vn -0.0641 0.9490 -0.3088
vn -0.0735 0.9479 -0.3101
vn -0.0641 0.9490 0.3088
vn -0.0735 0.9479 0.3101
vn -0.0438 0.6731 0.7383
vn -0.0512 0.6712 0.7395
vn -0.0229 0.3977 0.9172
vn -0.0287 0.3962 0.9177
vn -0.0058 0.1837 0.9830
vn -0.0109 0.1828 0.9831
vn 0.0097 0.0009 1.0000
vn 0.0049 0.0004 1.0000
vn 0.0262 -0.1819 0.9830
vn 0.0211 -0.1820 0.9831
vn 0.0465 -0.3956 0.9172
vn 0.0405 -0.3952 0.9177
vn 0.0737 -0.6704 0.7383
vn 0.0661 -0.6699 0.7395
vn 0.1017 -0.9457 0.3088
vn 0.0923 -0.9462 0.3101
vn 0.1017 -0.9457 -0.3088
vn 0.0923 -0.9462 -0.3101
vn 0.0737 -0.6704 -0.7383
vn 0.0661 -0.6699 -0.7395
vn 0.0465 -0.3956 -0.9172
vn 0.0405 -0.3952 -0.9177
vn 0.0262 -0.1819 -0.9830
vn 0.0211 -0.1820 -0.9831
vn -0.0160 0.1826 -0.9831
vn -0.0000 -0.0000 -1.0000
vn -0.0346 0.3960 -0.9176
vn -0.0587 0.6710 -0.7392
vn -0.0829 0.9472 -0.3097
vn -0.0829 0.9472 0.3097
vn -0.0587 0.6710 0.7392
vn -0.0346 0.3960 0.9176
vn -0.0160 0.1826 0.9831
vn 0.0000 0.0000 1.0000
vn 0.0160 -0.1826 0.9831
vn 0.0346 -0.3960 0.9176
vn 0.0587 -0.6710 0.7392
vn 0.0829 -0.9472 0.3097
vn 0.0829 -0.9472 -0.3097
vn 0.0587 -0.6710 -0.7392
vn 0.0346 -0.3960 -0.9176
vn 0.0160 -0.1826 -0.9831
vn -0.0213 0.1819 -0.9831
vn -0.0051 -0.0004 -1.0000
vn -0.0408 0.3951 -0.9177
vn -0.0664 0.6698 -0.7396
vn -0.0926 0.9462 -0.3101
vn -0.0926 0.9462 0.3101
vn -0.0664 0.6698 0.7396
vn -0.0408 0.3951 0.9177
vn -0.0213 0.1819 0.9831
vn -0.0051 -0.0004 1.0000
vn 0.0106 -0.1829 0.9831
vn 0.0285 -0.3962 0.9177
vn 0.0509 -0.6712 0.7396
vn 0.0731 -0.9479 0.3101
vn 0.0731 -0.9479 -0.3101
vn 0.0509 -0.6712 -0.7396
vn 0.0285 -0.3962 -0.9177
vn 0.0106 -0.1829 -0.9831
vn -0.0266 0.1819 -0.9830
vn -0.0101 -0.0009 -0.9999
vn -0.0470 0.3956 -0.9172
vn -0.0743 0.6704 -0.7382
vn -0.1024 0.9456 -0.3088
vn -0.1024 0.9456 0.3088
vn -0.0743 0.6704 0.7382
vn -0.0470 0.3956 0.9172
vn -0.0266 0.1819 0.9830
vn -0.0101 -0.0009 0.9999
vn 0.0054 -0.1838 0.9830
vn 0.0224 -0.3977 0.9172
vn 0.0432 -0.6731 0.7382
vn 0.0634 -0.9490 0.3088
vn 0.0634 -0.9490 -0.3088
vn 0.0432 -0.6731 -0.7382
vn 0.0224 -0.3977 -0.9172
vn 0.0054 -0.1838 -0.9830
vn 0.9962 0.0871 0.0000
# 212 vertex normals

vt 0.0000 26.0597 0.0000
vt 0.0000 0.0000 0.0000
vt 33.0530 0.0000 0.0000
vt 33.0530 26.0597 0.0000
vt 66.4971 0.0000 0.0000
vt 66.4971 26.0597 0.0000
vt 1.0000 0.0000 0.0000
vt 1.0000 27.6056 0.0000
vt -29.4606 27.6056 0.0000
vt -29.4606 0.0000 0.0000
vt -59.9212 27.6056 0.0000
vt -59.9212 0.0000 0.0000
vt 1.0000 55.2112 0.0000
vt -29.4606 55.2112 0.0000
vt -59.9212 55.2112 0.0000
vt 30.4606 0.0000 0.0000
vt 30.4606 27.6056 0.0000
vt 0.0000 27.6056 0.0000
vt 60.9212 0.0000 0.0000
vt 60.9212 27.6056 0.0000
vt 30.4606 55.2112 0.0000
vt 0.0000 55.2112 0.0000
vt 60.9212 55.2112 0.0000
vt 30.4606 4.5465 0.0000
vt 0.0000 4.5465 0.0000
vt 60.9212 4.5465 0.0000
vt 27.6056 0.0000 0.0000
vt 27.6056 4.5465 0.0000
vt 55.2112 0.0000 0.0000
vt 55.2112 4.5465 0.0000
vt 52.5493 0.0000 1.0000
vt 56.4419 0.0000 1.0000
vt 56.4419 66.9425 1.0000
vt 52.5493 66.9425 1.0000
vt 60.3344 0.0000 1.0000
vt 60.3344 66.9425 1.0000
vt 64.2269 0.0000 1.0000
vt 64.2269 66.9425 1.0000
vt 68.1195 0.0000 1.0000
vt 68.1195 66.9425 1.0000
vt 72.0120 0.0000 1.0000
vt 72.0120 66.9425 1.0000
vt 1.9463 0.0000 1.0000
vt 5.8388 0.0000 1.0000
vt 5.8388 66.9425 1.0000
vt 1.9463 66.9425 1.0000
vt 9.7314 0.0000 1.0000
vt 9.7314 66.9425 1.0000
vt 13.6239 0.0000 1.0000
vt 13.6239 66.9425 1.0000
vt 17.5164 0.0000 1.0000
vt 17.5164 66.9425 1.0000
vt 21.4090 0.0000 1.0000
vt 21.4090 66.9425 1.0000
vt 25.3015 0.0000 1.0000
vt 25.3015 66.9425 1.0000
vt 29.1941 0.0000 1.0000
vt 29.1941 66.9425 1.0000
vt 33.0866 0.0000 1.0000
vt 33.0866 66.9425 1.0000
vt 36.9791 0.0000 1.0000
vt 36.9791 66.9425 1.0000
vt 40.8717 0.0000 1.0000
vt 40.8717 66.9425 1.0000
vt 44.7642 0.0000 1.0000
vt 44.7642 66.9425 1.0000
vt 48.6568 0.0000 1.0000
vt 48.6568 66.9425 1.0000
vt 56.4419 100.4137 1.0000
vt 52.5493 100.4137 1.0000
vt 60.3344 100.4137 1.0000
vt 64.2269 100.4137 1.0000
vt 68.1195 100.4137 1.0000
vt 72.0120 100.4137 1.0000
vt 5.8388 100.4137 1.0000
vt 1.9463 100.4137 1.0000
vt 9.7314 100.4137 1.0000
vt 13.6239 100.4137 1.0000
vt 17.5164 100.4137 1.0000
vt 21.4090 100.4137 1.0000
vt 25.3015 100.4137 1.0000
vt 29.1941 100.4137 1.0000
vt 33.0866 100.4137 1.0000
vt 36.9791 100.4137 1.0000
vt 40.8717 100.4137 1.0000
vt 44.7642 100.4137 1.0000
vt 48.6568 100.4137 1.0000
vt 56.4419 133.8849 1.0000
vt 52.5493 133.8849 1.0000
vt 60.3344 133.8849 1.0000
vt 64.2269 133.8849 1.0000
vt 68.1195 133.8849 1.0000
vt 72.0120 133.8849 1.0000
vt 5.8388 133.8849 1.0000
vt 1.9463 133.8849 1.0000
vt 9.7314 133.8849 1.0000
vt 13.6239 133.8849 1.0000
vt 17.5164 133.8849 1.0000
vt 21.4090 133.8849 1.0000
vt 25.3015 133.8849 1.0000
vt 29.1941 133.8849 1.0000
vt 33.0866 133.8849 1.0000
vt 36.9791 133.8849 1.0000
vt 40.8717 133.8849 1.0000
vt 44.7642 133.8849 1.0000
vt 48.6568 133.8849 1.0000
vt 56.4419 167.3562 1.0000
vt 52.5493 167.3562 1.0000
vt 60.3344 167.3562 1.0000
vt 64.2269 167.3562 1.0000
vt 68.1195 167.3562 1.0000
vt 72.0120 167.3562 1.0000
vt 5.8388 167.3562 1.0000
vt 1.9463 167.3562 1.0000
vt 9.7314 167.3562 1.0000
vt 13.6239 167.3562 1.0000
vt 17.5164 167.3562 1.0000
vt 21.4090 167.3562 1.0000
vt 25.3015 167.3562 1.0000
vt 29.1941 167.3562 1.0000
vt 33.0866 167.3562 1.0000
vt 36.9791 167.3562 1.0000
vt 40.8717 167.3562 1.0000
vt 44.7642 167.3562 1.0000
vt 48.6568 167.3562 1.0000
vt 118.7225 167.3562 1.0000
vt 79.7971 167.3562 1.0000
vt 75.9046 167.3562 1.0000
vt 83.6897 167.3562 1.0000
vt 87.5822 167.3562 1.0000
vt 95.3673 167.3562 1.0000
vt 91.4747 167.3562 1.0000
vt 99.2598 167.3562 1.0000
vt 103.1524 167.3562 1.0000
vt 110.9374 167.3562 1.0000
vt 107.0449 167.3562 1.0000
vt 114.8300 167.3562 1.0000
vt 122.6151 167.3562 1.0000
# 138 texture coords

g Plane002
usemtl wire_176026026
s 1
f 1/1/1 2/2/2 3/3/3 4/4/4 
f 2/2/2 1/1/1 5/1/5 6/2/6 
f 5/1/5 7/1/7 8/2/8 6/2/6 
f 9/1/9 10/1/10 11/2/11 12/2/12 
f 13/1/13 14/1/14 15/2/15 16/2/16 
f 17/1/17 18/1/18 19/2/19 20/2/20 
f 21/1/21 22/1/22 23/2/23 24/2/24 
f 25/1/25 26/1/26 27/2/27 28/2/28 
f 29/1/29 30/1/30 31/2/31 32/2/32 
f 33/2/33 34/1/34 35/1/35 36/2/36 
f 36/2/36 35/1/35 37/1/37 38/2/38 
f 18/1/18 21/1/21 24/2/24 19/2/19 
f 10/1/10 13/1/13 16/2/16 11/2/11 
f 7/1/7 9/1/9 12/2/12 8/2/8 
f 39/5/39 40/6/40 4/4/4 3/3/3 
f 26/1/26 29/1/29 32/2/32 27/2/27 
f 30/1/30 34/1/34 33/2/33 31/2/31 
f 14/1/14 17/1/17 20/2/20 15/2/15 
f 22/1/22 25/1/25 28/2/28 23/2/23 
s 2
f 4/4/41 40/6/42 41/6/42 42/4/41 
f 5/1/43 1/1/44 43/1/44 44/1/43 
f 7/1/45 5/1/43 44/1/43 45/1/45 
f 10/1/46 9/1/47 46/1/47 47/1/46 
f 14/1/48 13/1/49 48/1/49 49/1/48 
f 18/1/50 17/1/51 50/1/51 51/1/50 
f 22/1/52 21/1/53 52/1/53 53/1/52 
f 26/1/54 25/1/55 54/1/56 55/1/57 
f 30/1/58 29/1/59 56/1/59 57/1/58 
f 35/1/60 34/1/61 58/1/61 59/1/60 
f 21/1/53 18/1/50 51/1/50 52/1/53 
f 13/1/49 10/1/46 47/1/46 48/1/49 
f 9/1/47 7/1/45 45/1/45 46/1/47 
f 1/1/44 4/4/41 42/4/41 43/1/44 
f 29/1/59 26/1/54 55/1/57 56/1/59 
f 34/1/61 30/1/58 57/1/58 58/1/61 
f 17/1/51 14/1/48 49/1/48 50/1/51 
f 25/1/55 22/1/52 53/1/52 54/1/56 
f 35/1/60 59/1/60 37/1/62 
s 4
f 60/1/63 61/4/64 3/3/65 2/2/66 
f 2/2/66 6/2/67 62/1/68 60/1/63 
f 62/1/68 6/2/67 8/2/69 63/1/70 
f 64/1/71 12/2/72 11/2/73 65/1/74 
f 66/1/75 16/2/76 15/2/77 67/1/78 
f 68/1/79 20/2/80 19/2/81 69/1/82 
f 70/1/83 24/2/84 23/2/85 71/1/86 
f 72/1/87 28/2/88 27/2/89 73/1/90 
f 74/1/91 32/2/92 31/2/93 75/1/94 
f 33/2/95 36/2/96 76/1/97 77/1/98 
f 36/2/99 38/2/99 37/1/99 
f 37/1/100 76/1/97 36/2/100 
f 69/1/82 19/2/81 24/2/84 70/1/83 
f 65/1/74 11/2/73 16/2/76 66/1/75 
f 63/1/70 8/2/69 12/2/72 64/1/71 
f 39/5/101 3/3/65 61/4/64 78/6/102 
f 73/1/90 27/2/89 32/2/92 74/1/91 
f 75/1/94 31/2/93 33/2/95 77/1/98 
f 67/1/78 15/2/77 20/2/80 68/1/79 
f 71/1/86 23/2/85 28/2/88 72/1/87 
s 2
f 61/4/41 42/4/41 41/6/42 78/6/42 
f 62/1/43 44/1/43 43/1/44 60/1/44 
f 63/1/45 45/1/45 44/1/43 62/1/43 
f 65/1/46 47/1/46 46/1/47 64/1/47 
f 67/1/48 49/1/48 48/1/49 66/1/49 
f 69/1/50 51/1/50 50/1/51 68/1/51 
f 71/1/52 53/1/52 52/1/53 70/1/53 
f 73/1/103 55/1/57 54/1/56 72/1/104 
f 75/1/58 57/1/58 56/1/59 74/1/59 
f 76/1/60 59/1/60 58/1/61 77/1/61 
f 70/1/53 52/1/53 51/1/50 69/1/50 
f 66/1/49 48/1/49 47/1/46 65/1/46 
f 64/1/47 46/1/47 45/1/45 63/1/45 
f 60/1/44 43/1/44 42/4/41 61/4/41 
f 74/1/59 56/1/59 55/1/57 73/1/103 
f 77/1/61 58/1/61 57/1/58 75/1/58 
f 68/1/51 50/1/51 49/1/48 67/1/48 
f 72/1/104 54/1/56 53/1/52 71/1/52 
f 76/1/60 37/1/62 59/1/60 
f 79/7/105 80/8/105 81/9/105 82/10/106 
f 82/10/106 81/9/105 83/11/105 84/12/106 
f 80/8/105 85/13/106 86/14/106 81/9/105 
f 81/9/105 86/14/106 87/15/105 83/11/105 
s 4
f 88/2/107 89/16/107 90/17/107 91/18/107 
f 89/16/107 92/19/107 93/20/108 90/17/107 
f 91/18/107 90/17/107 94/21/108 95/22/108 
f 90/17/107 93/20/108 96/23/108 94/21/108 
s 8
f 79/2/109 82/16/38 89/24/110 88/25/109 
f 82/16/38 84/19/111 92/26/111 89/24/110 
s 16
f 84/2/112 83/27/113 93/28/113 92/25/112 
f 83/27/113 87/29/114 96/30/114 93/28/113 
s 32
f 87/2/115 86/16/116 94/24/116 96/25/115 
f 86/16/116 85/19/117 95/26/117 94/24/116 
s 64
f 85/2/118 80/27/119 91/28/120 95/25/118 
f 80/27/119 79/29/121 88/30/121 91/28/120 
s 8
f 97/31/122 98/32/123 99/33/124 100/34/125 
f 98/32/123 101/35/126 102/36/127 99/33/124 
f 101/35/126 103/37/128 104/38/129 102/36/127 
f 103/37/128 105/39/130 106/40/131 104/38/129 
f 105/39/130 107/41/132 108/42/133 106/40/131 
f 107/43/132 109/44/134 110/45/135 108/46/133 
f 109/44/134 111/47/136 112/48/137 110/45/135 
f 111/47/136 113/49/138 114/50/139 112/48/137 
f 113/49/138 115/51/140 116/52/141 114/50/139 
f 115/51/140 117/53/142 118/54/143 116/52/141 
f 117/53/142 119/55/144 120/56/145 118/54/143 
f 119/55/144 121/57/146 122/58/147 120/56/145 
f 121/57/146 123/59/148 124/60/149 122/58/147 
f 123/59/148 125/61/150 126/62/151 124/60/149 
f 125/61/150 127/63/152 128/64/153 126/62/151 
f 127/63/152 129/65/154 130/66/155 128/64/153 
f 129/65/154 131/67/156 132/68/157 130/66/155 
f 131/67/156 97/31/122 100/34/125 132/68/157 
f 100/34/125 99/33/124 133/69/158 134/70/159 
f 99/33/124 102/36/127 135/71/160 133/69/158 
f 102/36/127 104/38/129 136/72/161 135/71/160 
f 104/38/129 106/40/131 137/73/162 136/72/161 
f 106/40/131 108/42/133 138/74/163 137/73/162 
f 108/46/133 110/45/135 139/75/164 138/76/163 
f 110/45/135 112/48/137 140/77/165 139/75/164 
f 112/48/137 114/50/139 141/78/166 140/77/165 
f 114/50/139 116/52/141 142/79/167 141/78/166 
f 116/52/141 118/54/143 143/80/168 142/79/167 
f 118/54/143 120/56/145 144/81/169 143/80/168 
f 120/56/145 122/58/147 145/82/170 144/81/169 
f 122/58/147 124/60/149 146/83/171 145/82/170 
f 124/60/149 126/62/151 147/84/172 146/83/171 
f 126/62/151 128/64/153 148/85/173 147/84/172 
f 128/64/153 130/66/155 149/86/174 148/85/173 
f 130/66/155 132/68/157 150/87/175 149/86/174 
f 132/68/157 100/34/125 134/70/159 150/87/175 
f 134/70/159 133/69/158 151/88/176 152/89/177 
f 133/69/158 135/71/160 153/90/178 151/88/176 
f 135/71/160 136/72/161 154/91/179 153/90/178 
f 136/72/161 137/73/162 155/92/180 154/91/179 
f 137/73/162 138/74/163 156/93/181 155/92/180 
f 138/76/163 139/75/164 157/94/182 156/95/181 
f 139/75/164 140/77/165 158/96/183 157/94/182 
f 140/77/165 141/78/166 159/97/184 158/96/183 
f 141/78/166 142/79/167 160/98/185 159/97/184 
f 142/79/167 143/80/168 161/99/186 160/98/185 
f 143/80/168 144/81/169 162/100/187 161/99/186 
f 144/81/169 145/82/170 163/101/188 162/100/187 
f 145/82/170 146/83/171 164/102/189 163/101/188 
f 146/83/171 147/84/172 165/103/190 164/102/189 
f 147/84/172 148/85/173 166/104/191 165/103/190 
f 148/85/173 149/86/174 167/105/192 166/104/191 
f 149/86/174 150/87/175 168/106/193 167/105/192 
f 150/87/175 134/70/159 152/89/177 168/106/193 
f 152/89/177 151/88/176 169/107/194 170/108/195 
f 151/88/176 153/90/178 171/109/196 169/107/194 
f 153/90/178 154/91/179 172/110/197 171/109/196 
f 154/91/179 155/92/180 173/111/198 172/110/197 
f 155/92/180 156/93/181 174/112/199 173/111/198 
f 156/95/181 157/94/182 175/113/200 174/114/199 
f 157/94/182 158/96/183 176/115/201 175/113/200 
f 158/96/183 159/97/184 177/116/202 176/115/201 
f 159/97/184 160/98/185 178/117/203 177/116/202 
f 160/98/185 161/99/186 179/118/204 178/117/203 
f 161/99/186 162/100/187 180/119/205 179/118/204 
f 162/100/187 163/101/188 181/120/206 180/119/205 
f 163/101/188 164/102/189 182/121/207 181/120/206 
f 164/102/189 165/103/190 183/122/208 182/121/207 
f 165/103/190 166/104/191 184/123/209 183/122/208 
f 166/104/191 167/105/192 185/124/210 184/123/209 
f 167/105/192 168/106/193 186/125/211 185/124/210 
f 168/106/193 152/89/177 170/108/195 186/125/211 
s 1
f 169/107/105 171/109/212 172/110/106 186/126/105 
f 172/110/106 173/111/106 174/112/106 176/127/105 
f 174/112/106 175/128/105 176/127/105 
f 176/127/105 177/129/105 178/130/105 180/131/106 
f 178/130/105 179/132/106 180/131/106 
f 180/131/106 181/133/106 182/134/105 184/135/105 
f 182/134/105 183/136/105 184/135/105 
f 176/127/105 180/131/106 184/135/105 172/110/106 
f 184/135/105 185/137/106 186/126/105 172/110/106 
f 170/138/106 169/107/105 186/126/105 
# 167 polygons - 8 triangles

